<svg xmlns="http://www.w3.org/2000/svg" width="927" height="928" fill="none" viewBox="0 0 927 928"><g clip-path="url(#a)"><circle cx="463.5" cy="464" r="431.558" fill="url(#b)" stroke="#f0f0f0" stroke-width="20.43"/><path stroke="#ffeaf7" stroke-width="28.242" d="M565.2 463.411c0 49.31-12.386 93.277-31.666 124.46-19.416 31.402-44.389 47.934-69.534 47.934s-50.118-16.532-69.534-47.934c-19.28-31.183-31.666-75.15-31.666-124.46s12.386-93.276 31.666-124.459c19.416-31.402 44.389-47.933 69.534-47.933s50.118 16.531 69.534 47.933c19.28 31.183 31.666 75.15 31.666 124.459Z"/><path stroke="#ffeaf7" stroke-width="28.242" d="M463.412 565.2c-49.309 0-93.277-12.386-124.46-31.666-31.402-19.416-47.934-44.389-47.934-69.535.001-25.144 16.532-50.117 47.934-69.533 31.183-19.28 75.151-31.666 124.46-31.666s93.276 12.386 124.459 31.666c31.402 19.416 47.933 44.389 47.934 69.534s-16.532 50.118-47.934 69.534c-31.183 19.28-75.15 31.666-124.459 31.666Z"/><rect width="87.619" height="40.524" x="211" y="443.19" fill="#ffeaf7" rx="20.262"/><rect width="87.619" height="40.524" x="629.381" y="443.19" fill="#ffeaf7" rx="20.262"/><rect width="87.619" height="40.524" x="483.714" y="211" fill="#ffeaf7" rx="20.262" transform="rotate(90 483.714 211)"/><rect width="87.619" height="40.524" x="483.714" y="629.381" fill="#ffeaf7" rx="20.262" transform="rotate(90 483.714 629.381)"/><circle cx="464" cy="464" r="228.288" stroke="#ffeaf7" stroke-width="28.242"/><path fill="#ffeaf7" stroke="#ffeaf7" stroke-width="3.53" d="M467.684 411.635q8.098 0 16.177 2.03h-.001a48.7 48.7 0 0 1 14.654 6.007l.914.575.008.004c1.836 1.193 3.158 2.743 3.785 4.675l.122.346c.577 1.733.648 3.523.224 5.334l-.003.013-.003.011a10.8 10.8 0 0 1-2.517 4.717c-1.31 1.435-2.98 2.321-4.933 2.667l-.001-.001c-2.033.377-4.138-.171-6.222-1.322l-.017-.009-.017-.01c-3.434-1.997-6.893-3.438-10.378-4.336-3.487-.898-7.414-1.356-11.792-1.356-6.698 0-12.228 1.363-16.676 3.991l-.011.007-.011.007c-4.436 2.534-7.797 6.24-10.089 11.186l-.204.471c-2.082 4.903-3.158 10.937-3.158 18.158 0 11.321 2.703 19.627 7.83 25.212 5.095 5.552 12.755 8.466 23.304 8.466q5.445.001 11.048-1.097a75 75 0 0 0 6.307-1.523v-20.114h-13.7c-2.649 0-4.958-.697-6.687-2.31l-.024-.022-.024-.024c-1.611-1.619-2.341-3.749-2.341-6.187 0-2.5.714-4.679 2.393-6.237l.024-.022.024-.022c1.73-1.489 4.019-2.122 6.635-2.122h23.198c2.665 0 4.97.757 6.615 2.521 1.722 1.648 2.46 3.941 2.46 6.588v34.313c0 2.308-.47 4.382-1.514 6.13-.995 1.823-2.622 3.089-4.7 3.858l-.006.001c-4.23 1.545-9.057 2.839-14.47 3.888l-.029.006q-8.159 1.438-16.053 1.439c-11.184-.001-20.771-2.113-28.683-6.429l-.008-.004c-7.804-4.311-13.77-10.452-17.867-18.387-4.091-7.924-6.101-17.251-6.101-27.922 0-8.074 1.148-15.387 3.476-21.916l.008-.021c2.421-6.517 5.874-12.099 10.372-16.715h.001c4.593-4.711 10.152-8.283 16.65-10.722l.614-.234c6.364-2.383 13.505-3.557 21.397-3.557Z"/><path fill="#fff" d="M290.309 217.263q-10.526 5.97-20.139 6.248-9.526.23-17.35-4.645-7.823-4.876-13.151-14.27-4.143-7.307-5.187-14.417-1.006-7.247.975-13.889 1.932-6.73 6.962-12.455 5.067-5.863 13.07-10.402 4.35-2.466 9.366-4.162 4.966-1.782 10.599-1.987 2.853-.239 4.722 1.231 1.905 1.334 2.742 3.618.873 2.15.642 4.579-.193 2.294-1.849 4.038-1.704 1.656-4.868 1.956-3.3.262-6.69 1.38-3.44 1.03-6.832 2.955-5.828 3.305-8.558 7.612-2.644 4.258-2.239 9.432.405 5.173 3.76 11.089 5.031 8.873 11.946 10.929t15.439-2.778q2.61-1.48 5.358-3.728a56 56 0 0 0 5.424-5.031l.447 7.679-8.436-14.874-6.089 3.453q-2.958 1.677-5.449 1.136-2.404-.591-3.933-3.288-1.53-2.696-.753-4.976.814-2.416 3.771-4.093l12.874-7.301q3.045-1.727 5.548-.962 2.54.628 4.267 3.673l10.902 19.224q1.48 2.609 1.385 5.077-.008 2.42-1.912 4.534-3.3 3.71-7.639 7.206a68 68 0 0 1-9.125 6.209m103.271-47.617q-4.372.498-7.028-1.615-2.667-2.212-3.188-6.783l-3.1-27.224 4.918 9.605-26.597-30.285q-1.96-2.192-2.09-5.096-.042-3.015 1.819-5.24 1.948-2.335 5.922-2.788 2.783-.317 5.226.814 2.432 1.032 4.781 3.985l16.241 18.883-3.577.408 11.568-22.151q1.725-3.416 3.764-4.958 2.038-1.54 5.019-1.88 3.776-.43 6.077 1.22t2.729 4.521q.528 2.858-1.121 6.065l-18.931 35.269 2.534-10.454 3.1 27.224q1.075 9.44-8.066 10.48m104.561-8.666q-4.225-1.228-5.86-4.203-1.607-3.07-.378-7.296l14.741-50.7q1.257-4.321 4.231-5.956 3.07-1.606 7.296-.378l23.622 6.868q11.523 3.35 16.117 10.831 4.718 7.412 1.815 17.398-1.872 6.434-6.148 10.397-4.152 3.896-10.284 4.925-6.006.961-13.785-1.3l1.271-1.506 4.609 1.341q4.13 1.2 6.712 4.138 2.61 2.842 3.55 7.489l2.288 10.038q.727 3.231-.151 5.892-.849 2.565-3.369 3.707-2.394 1.074-6.14-.015t-5.698-3.323q-1.858-2.207-2.733-6.002l-4.076-18.576q-.539-2.448-2.139-3.747-1.477-1.367-3.782-2.036l-5.281-1.536-4.998 17.188q-1.228 4.225-4.135 5.984-2.879 1.662-7.295.378m20.057-36.033 11.715 3.406q5.09 1.48 8.364.245 3.276-1.235 4.504-5.46 1.173-4.032-.93-6.831-2.074-2.894-7.164-4.374l-11.714-3.406zm119.623 88.08q-8.832-6.04-12.977-14.327-4.09-8.37-3.175-17.679.997-9.252 7.15-18.249 4.63-6.769 10.475-10.888 5.929-4.062 12.518-5.371 6.672-1.252 13.531.41 6.915 1.58 13.519 6.096 8.832 6.04 12.895 14.271 4.145 8.287 3.231 17.595-.86 9.226-7.068 18.306-4.63 6.77-10.558 10.831-5.845 4.119-12.574 5.454-6.589 1.309-13.504-.271-6.86-1.662-13.463-6.178m8.694-12.712q4.374 2.993 8.84 3.018t8.769-2.726q4.304-2.75 8.03-8.198 5.589-8.172 5.062-15.195-.528-7.024-7.048-11.484-4.292-2.935-8.84-3.017-4.409-.108-8.713 2.643-4.247 2.667-8.03 8.198-5.589 8.172-5.118 15.278.526 7.023 7.048 11.483m-472.302 53.007q1.478-2.611 4.203-3.367t5.337.721q2.61 1.477 3.28 4.153.755 2.726-.721 5.337l-9.749 17.233q-1.478 2.612-4.203 3.368-2.638.804-5.25-.672-2.61-1.478-3.367-4.203-.756-2.726.721-5.337zm-77.87 130.887q1.775-11.969 7.472-19.718 5.683-7.649 14.341-10.814t19.341-1.581q8.308 1.231 14.556 4.786 6.33 3.668 10.345 9.317 4.115 5.665 5.531 13.154 1.501 7.602.153 16.702-.733 4.947-2.485 9.944-1.653 5.011-4.957 9.576-1.569 2.395-3.877 2.964-2.224.681-4.539-.066-2.231-.635-4.004-2.313-1.69-1.565-2.045-3.942-.255-2.363 1.455-5.041 1.825-2.763 3.031-6.122 1.304-3.345 1.876-7.203.982-6.627-.732-11.43-1.728-4.705-6.055-7.57t-11.054-3.862q-10.089-1.497-15.966 2.687t-7.314 13.878q-.44 2.967-.36 6.518a56 56 0 0 0 .626 7.371l-6.327-4.375 16.916 2.508 1.026-6.925q.498-3.363 2.459-4.993 1.945-1.531 5.012-1.077t4.385 2.47q1.403 2.128.905 5.492l-2.17 14.64q-.514 3.462-2.657 4.964-2.06 1.615-5.521 1.102l-21.861-3.24q-2.968-.44-4.855-2.034-1.901-1.494-2.395-4.298-.894-4.883-.978-10.456a68 68 0 0 1 .723-11.013m-2.86 152.199q-2.853-10.312-.677-19.32 2.273-9.033 8.975-15.557 6.73-6.429 17.234-9.336 7.904-2.187 15.027-1.565 7.15.718 13.031 3.968 5.906 3.345 10.076 9.039 4.266 5.667 6.401 13.378 2.854 10.312.651 19.222-2.176 9.007-8.879 15.532-6.606 6.497-17.207 9.431-7.904 2.188-15.054 1.469-7.124-.621-13.127-3.941-5.88-3.249-10.146-8.916-4.17-5.694-6.304-13.404m14.843-4.108q1.413 5.108 4.81 8.007t8.46 3.572 11.424-1.086q9.542-2.642 13.668-8.349 4.127-5.708 2.02-13.321-1.388-5.013-4.811-8.007-3.3-2.927-8.363-3.6-4.966-.7-11.424 1.087-9.542 2.64-13.764 8.375-4.128 5.708-2.02 13.322m43.892 147.578q-2.408-2.94-2.692-5.81-.22-2.793 1.474-6.249l25.969-52.562q1.693-3.456 4.24-4.766 2.546-1.311 5.1-.56 2.632.688 4.724 3.241 2.598 3.171 2.473 5.859-.061 2.764-1.818 6.144l-23.582 45.693-3.549-4.332 49.517-14.197q3.658-1.057 6.304-.511 2.723.484 5.131 3.424 1.965 2.397 2.058 5.036.17 2.575-1.678 4.736-1.786 2.24-5.507 3.219l-56.707 15.047q-3.658 1.057-6.353.292t-5.104-3.704m91.344 96.19q-4.142-2.22-5.212-5.517-.933-3.337 1.239-7.391l24.332-45.39q2.173-4.054 5.422-5.036 3.386-1.022 7.527 1.199l29.878 16.016q3.173 1.7 3.909 4.138.737 2.436-.87 5.433-1.654 3.084-4.138 3.909-2.437.736-5.61-.965l-22.827-12.236-6.331 11.81 20.888 11.197q3.085 1.654 3.821 4.09.825 2.485-.829 5.569-1.655 3.085-4.179 3.774-2.436.735-5.521-.918l-20.889-11.197-6.85 12.78 22.827 12.236q3.172 1.701 3.862 4.226.735 2.438-.871 5.433-1.654 3.086-4.09 3.821t-5.61-.965zm127.624 59.765q-4.374-.468-6.506-3.109-2.12-2.74-1.654-7.116l5.61-52.501q.477-4.474 3.119-6.606 2.74-2.12 7.116-1.654l24.461 2.614q11.931 1.274 17.768 7.832 5.947 6.468 4.842 16.809-.712 6.662-4.226 11.315-3.404 4.565-9.259 6.654-5.745 2-13.8 1.141l.987-1.705 4.773.51q4.275.456 7.334 2.895 3.069 2.34 4.81 6.749l4.016 9.481q1.282 3.053.886 5.827-.386 2.673-2.666 4.241-2.17 1.477-6.047 1.063-3.878-.414-6.194-2.271-2.217-1.846-3.744-5.428l-7.275-17.572q-.959-2.316-2.764-3.313-1.693-1.086-4.08-1.341l-5.469-.584-1.902 17.799q-.467 4.374-3.02 6.616-2.541 2.142-7.116 1.654m13.419-38.996 12.131 1.297q5.27.563 8.277-1.228t3.475-6.166q.445-4.176-2.115-6.562-2.55-2.484-7.821-3.048l-12.13-1.296zm136.866 46.098q-4.011 1.245-6.764-.204t-4.028-5.555l-16.159-52.05q-1.305-4.202.114-7.051 1.39-2.944 4.828-4.012 3.056-.948 5.131-.336t5.006 2.634l42.016 28.421-2.674.83-10.733-34.572q-1.246-4.011.108-6.735 1.449-2.754 5.46-3.999t6.669.233q2.753 1.449 3.998 5.46l16.426 52.909q1.126 3.63-.102 6.419-1.257 2.694-4.505 3.702-3.246 1.008-5.513.455-2.2-.678-5.101-2.604l-42.045-28.517 2.674-.83 10.733 34.573q1.275 4.106-.174 6.86-1.354 2.723-5.365 3.969m142.314-51.48q-2.339 2.034-4.843 2.355-2.568.246-4.586-1.313-2.084-1.634-3.126-4.968l-16.374-56.788q-1.2-4.124-.419-7.188.856-3.13 3.423-5.361 2.566-2.23 5.634-2.512 3.143-.347 7.135 1.35l53.958 24.115q3.308 1.365 4.635 3.656 1.404 2.224.738 4.659-.591 2.368-2.855 4.336-3.02 2.625-5.86 2.71-2.766.02-6.673-1.884l-12.408-6.042 8.629-.744-31.093 27.03 2.012-8.507 4.257 13.128q1.266 4.2 1.013 6.804t-3.197 5.164m-12.889-57.962 9.419 28.516-5.262-1.786 21.961-19.092 1.036 5.46-27.003-13.229zm129.054-55.149q-1.785 3.802-4.711 4.858-2.927 1.057-6.819-.771l-49.334-23.161q-3.983-1.87-5.13-4.838-1.237-3.012.293-6.271 1.36-2.896 3.211-4.016 1.85-1.119 5.32-1.921l49.318-11.866-1.19 2.535-32.768-15.384q-3.802-1.785-4.901-4.621-1.056-2.927.728-6.728 1.785-3.802 4.669-4.768 2.927-1.056 6.728.728l50.149 23.544q3.44 1.614 4.672 4.403 1.141 2.745-.304 5.823-1.445 3.077-3.381 4.378-1.984 1.168-5.363 2.011l-49.408 11.824 1.189-2.535 32.769 15.384q3.892 1.828 4.949 4.754 1.1 2.836-.686 6.638m59.379-171.689q-.414 11.693-5.208 19.928t-13.148 12.443q-8.35 4.107-19.344 3.718-8.194-.29-14.802-3.026-6.605-2.835-11.231-7.802-4.625-5.066-6.879-12.051-2.35-7.087-2.043-15.782.163-4.596 1.436-9.455 1.176-4.96 3.409-8.685 1.598-2.745 3.936-3.763t4.721-.533a9 9 0 0 1 4.238 1.851q1.848 1.465 2.471 3.69.522 2.219-.87 4.772a30.8 30.8 0 0 0-2.311 5.922q-.901 2.87-1.015 6.068-.219 6.195 2.031 10.478 2.154 4.179 6.576 6.437 4.423 2.257 11.019 2.491t11.267-1.703q4.572-1.94 7.115-5.952 2.448-4.116 2.667-10.312.091-2.598-.402-5.618a28.4 28.4 0 0 0-1.89-5.97q-1.193-3.044-.512-5.322.685-2.377 2.533-3.712 1.852-1.436 4.264-1.751 2.313-.318 4.573.863 2.264 1.08 3.57 3.728 1.976 3.573 2.99 8.812 1.02 5.139.839 10.236m-5.338-122.269q1.605 4.417.203 7.587-1.53 3.11-5.853 4.68l-48.403 17.589q-4.324 1.57-7.399.135-3.204-1.496-4.809-5.913l-11.578-31.862q-1.229-3.384-.152-5.69t4.272-3.468q3.29-1.194 5.69-.152 2.307 1.077 3.536 4.46l8.846 24.343 12.594-4.576-8.094-22.275q-1.195-3.29-.118-5.596 1.043-2.401 4.332-3.596 3.29-1.195 5.63-.025 2.307 1.077 3.502 4.367l8.095 22.275 13.628-4.952-8.846-24.343q-1.23-3.384-.058-5.724 1.077-2.307 4.272-3.468 3.29-1.195 5.596-.118t3.536 4.46zM768.2 272.003q1.691 2.478 1.167 5.257-.523 2.78-3.001 4.471t-5.175 1.112q-2.78-.525-4.471-3.002l-11.165-16.352q-1.691-2.478-1.167-5.257.441-2.723 2.919-4.415 2.477-1.691 5.257-1.167 2.78.523 4.471 3.001z"/></g><defs><linearGradient id="b" x1="905.273" x2="21.727" y1="22.227" y2="905.773" gradientUnits="userSpaceOnUse"><stop stop-color="#0059ff"/><stop offset="1" stop-color="#bb49a6"/></linearGradient><clipPath id="a"><path fill="#fff" d="M0 .5h927v927H0z"/></clipPath></defs></svg>